<svg width="20" height="20" viewBox="0 0 20 20" fill="none" xmlns="http://www.w3.org/2000/svg">
<path d="M19.4562 8.1551C19.5792 8.81409 19.6462 9.50308 19.6462 10.2221C19.6462 15.846 15.8823 19.8449 10.1974 19.8449C8.90454 19.8453 7.6243 19.591 6.42982 19.0964C5.23533 18.6018 4.15 17.8768 3.23583 16.9626C2.32167 16.0484 1.59659 14.9631 1.10203 13.7686C0.607471 12.5741 0.353122 11.2939 0.353516 10.0011C0.353122 8.70825 0.607471 7.42802 1.10203 6.23353C1.59659 5.03904 2.32167 3.95371 3.23583 3.03954C4.15 2.12538 5.23533 1.4003 6.42982 0.905742C7.6243 0.411182 8.90454 0.156833 10.1974 0.157227C12.8553 0.157227 15.0763 1.13521 16.7803 2.72319L14.0053 5.49814V5.49114C12.9723 4.50716 11.6613 4.00217 10.1974 4.00217C6.94941 4.00217 4.30945 6.74612 4.30945 9.99507C4.30945 13.243 6.94941 15.993 10.1974 15.993C13.1443 15.993 15.1503 14.308 15.5623 11.994H10.1974V8.1551H19.4572H19.4562Z" fill="#0C646D"/>
</svg>
