<svg width="22" height="22" viewBox="0 0 22 22" fill="none" xmlns="http://www.w3.org/2000/svg">
<path fill-rule="evenodd" clip-rule="evenodd" d="M6.4649 0.0670976C7.63788 0.0130984 8.01187 0.00109863 10.9998 0.00109863C13.9878 0.00109863 14.3618 0.0140984 15.5338 0.0670976C16.7057 0.120097 17.5057 0.307094 18.2057 0.578089C18.9387 0.855085 19.6037 1.28808 20.1537 1.84807C20.7137 2.39706 21.1457 3.06105 21.4217 3.79504C21.6937 4.49503 21.8797 5.29501 21.9336 6.465C21.9876 7.63998 21.9996 8.01397 21.9996 11.0009C21.9996 13.9889 21.9866 14.3629 21.9336 15.5359C21.8806 16.7058 21.6937 17.5058 21.4217 18.2058C21.1457 18.9399 20.7129 19.605 20.1537 20.1548C19.6037 20.7148 18.9387 21.1468 18.2057 21.4228C17.5057 21.6948 16.7057 21.8807 15.5358 21.9347C14.3618 21.9887 13.9878 22.0007 10.9998 22.0007C8.01187 22.0007 7.63788 21.9877 6.4649 21.9347C5.29492 21.8817 4.49493 21.6948 3.79494 21.4228C3.06087 21.1467 2.39578 20.714 1.84597 20.1548C1.28636 19.6055 0.853301 18.9407 0.576991 18.2068C0.305995 17.5068 0.119998 16.7068 0.0659989 15.5368C0.0119998 14.3619 0 13.9879 0 11.0009C0 8.01297 0.0129998 7.63898 0.0659989 6.467C0.118998 5.29501 0.305995 4.49503 0.576991 3.79504C0.853709 3.06113 1.2871 2.39637 1.84697 1.84707C2.396 1.28758 3.06042 0.854528 3.79394 0.578089C4.49393 0.307094 5.29392 0.121097 6.4639 0.0670976H6.4649ZM15.4448 2.04707C14.2848 1.99407 13.9368 1.98307 10.9998 1.98307C8.06287 1.98307 7.71488 1.99407 6.55489 2.04707C5.48191 2.09607 4.89992 2.27506 4.51193 2.42606C3.99894 2.62606 3.63194 2.86305 3.24695 3.24805C2.882 3.60309 2.60114 4.03532 2.42496 4.51303C2.27396 4.90102 2.09497 5.48301 2.04597 6.55599C1.99297 7.71598 1.98197 8.06397 1.98197 11.0009C1.98197 13.9379 1.99297 14.2859 2.04597 15.4459C2.09497 16.5188 2.27396 17.1008 2.42496 17.4888C2.60096 17.9658 2.88195 18.3988 3.24695 18.7538C3.60194 19.1188 4.03494 19.3998 4.51193 19.5758C4.89992 19.7268 5.48191 19.9058 6.55489 19.9548C7.71488 20.0078 8.06187 20.0188 10.9998 20.0188C13.9378 20.0188 14.2848 20.0078 15.4448 19.9548C16.5177 19.9058 17.0997 19.7268 17.4877 19.5758C18.0007 19.3758 18.3677 19.1388 18.7527 18.7538C19.1177 18.3988 19.3987 17.9658 19.5747 17.4888C19.7257 17.1008 19.9047 16.5188 19.9537 15.4459C20.0067 14.2859 20.0177 13.9379 20.0177 11.0009C20.0177 8.06397 20.0067 7.71598 19.9537 6.55599C19.9047 5.48301 19.7257 4.90102 19.5747 4.51303C19.3747 4.00003 19.1377 3.63304 18.7527 3.24805C18.3976 2.88312 17.9654 2.60227 17.4877 2.42606C17.0997 2.27506 16.5177 2.09607 15.4448 2.04707ZM9.59485 14.3919C10.3795 14.7185 11.2532 14.7626 12.0667 14.5166C12.8803 14.2706 13.5832 13.7498 14.0554 13.0431C14.5276 12.3365 14.7398 11.4878 14.6558 10.642C14.5718 9.79628 14.1968 9.00593 13.5948 8.40596C13.211 8.02245 12.747 7.72879 12.2361 7.54612C11.7253 7.36346 11.1803 7.29634 10.6403 7.3496C10.1004 7.40285 9.579 7.57515 9.11366 7.8541C8.64832 8.13305 8.25061 8.51171 7.94918 8.96281C7.64774 9.41391 7.45007 9.92623 7.3704 10.4629C7.29073 10.9996 7.33103 11.5472 7.48842 12.0664C7.64581 12.5856 7.91635 13.0635 8.28059 13.4656C8.64482 13.8677 9.09368 14.1841 9.59485 14.3919ZM7.00189 7.00299C7.5269 6.47797 8.15019 6.0615 8.83616 5.77737C9.52212 5.49323 10.2573 5.34699 10.9998 5.34699C11.7423 5.34699 12.4775 5.49323 13.1635 5.77737C13.8495 6.0615 14.4727 6.47797 14.9978 7.00299C15.5228 7.528 15.9392 8.15129 16.2234 8.83726C16.5075 9.52322 16.6538 10.2584 16.6538 11.0009C16.6538 11.7434 16.5075 12.4786 16.2234 13.1646C15.9392 13.8506 15.5228 14.4738 14.9978 14.9989C13.9374 16.0592 12.4993 16.6549 10.9998 16.6549C9.50031 16.6549 8.06221 16.0592 7.00189 14.9989C5.94157 13.9385 5.34589 12.5004 5.34589 11.0009C5.34589 9.50141 5.94157 8.0633 7.00189 7.00299ZM17.9077 6.189C18.0378 6.06627 18.142 5.91868 18.214 5.75498C18.2861 5.59128 18.3245 5.41478 18.3271 5.23595C18.3297 5.05711 18.2964 4.87957 18.2292 4.71383C18.162 4.5481 18.0621 4.39754 17.9357 4.27107C17.8092 4.1446 17.6586 4.04479 17.4929 3.97755C17.3272 3.91031 17.1496 3.87701 16.9708 3.87962C16.792 3.88223 16.6155 3.92069 16.4518 3.99273C16.2881 4.06477 16.1405 4.16893 16.0177 4.29903C15.7791 4.55206 15.6484 4.88814 15.6535 5.23595C15.6585 5.58375 15.7989 5.91588 16.0449 6.16184C16.2909 6.4078 16.623 6.54822 16.9708 6.55329C17.3186 6.55836 17.6547 6.42769 17.9077 6.189Z" fill="#0C646D"/>
</svg>
