<svg width="18" height="18" viewBox="0 0 18 18" fill="none" xmlns="http://www.w3.org/2000/svg">
<path d="M15.3343 15.3392H12.6693V11.1623C12.6693 10.1663 12.6493 8.88435 11.2793 8.88435C9.89036 8.88435 9.67836 9.96833 9.67836 11.0893V15.3392H7.0124V6.75038H9.57236V7.92036H9.60736C9.96535 7.24637 10.8353 6.53339 12.1353 6.53339C14.8353 6.53339 15.3353 8.31136 15.3353 10.6243V15.3392H15.3343ZM4.00245 5.5754C3.79901 5.57566 3.59751 5.53577 3.40952 5.45801C3.22153 5.38025 3.05073 5.26614 2.90692 5.12224C2.76311 4.97834 2.64912 4.80747 2.57148 4.61943C2.49384 4.43138 2.45408 4.22987 2.45447 4.02642C2.45467 3.72026 2.54565 3.42104 2.71591 3.16658C2.88617 2.91213 3.12806 2.71388 3.41099 2.5969C3.69392 2.47992 4.00518 2.44947 4.30542 2.50939C4.60566 2.56931 4.88139 2.71692 5.09774 2.93355C5.31409 3.15018 5.46134 3.42609 5.52087 3.72641C5.58041 4.02673 5.54955 4.33795 5.43221 4.62073C5.31486 4.90351 5.1163 5.14515 4.86163 5.31507C4.60695 5.485 4.30761 5.5756 4.00145 5.5754H4.00245ZM5.33843 15.3392H2.66547V6.75038H5.33943V15.3392H5.33843ZM16.6692 0.000488281H1.32849C0.592502 0.000488281 -0.000488281 0.580479 -0.000488281 1.29747V16.7032C-0.000488281 17.4202 0.593502 18.0002 1.32749 18.0002H16.6652C17.3992 18.0002 17.9992 17.4202 17.9992 16.7032V1.29747C17.9992 0.580479 17.3992 0.000488281 16.6652 0.000488281H16.6682H16.6692Z" fill="#0C646D"/>
</svg>
