<svg width="24" height="24" viewBox="0 0 24 24" fill="none" xmlns="http://www.w3.org/2000/svg">
<g opacity="0.8" clip-path="url(#clip0_233_136)">
<path d="M23.6434 4.93692C22.8084 5.30691 21.9114 5.55691 20.9684 5.66991C21.9414 5.08771 22.6693 4.1714 23.0164 3.09195C22.1023 3.63493 21.1018 4.01713 20.0584 4.22193C19.3568 3.47281 18.4275 2.97628 17.4148 2.80943C16.4021 2.64258 15.3626 2.81475 14.4578 3.2992C13.5529 3.78365 12.8333 4.55329 12.4107 5.48862C11.9881 6.42394 11.8861 7.47263 12.1206 8.47186C10.2683 8.37886 8.45625 7.89742 6.80207 7.05879C5.1479 6.22016 3.68854 5.04308 2.51872 3.60394C2.11873 4.29393 1.88873 5.09392 1.88873 5.9459C1.88828 6.71289 2.07716 7.46812 2.4386 8.1446C2.80004 8.82108 3.32287 9.39789 3.9607 9.82384C3.22098 9.80031 2.49759 9.60043 1.85073 9.24085V9.30085C1.85065 10.3766 2.22276 11.4192 2.9039 12.2518C3.58504 13.0844 4.53326 13.6557 5.58767 13.8688C4.90146 14.0545 4.18203 14.0818 3.4837 13.9488C3.7812 14.8744 4.36068 15.6838 5.14104 16.2637C5.9214 16.8436 6.86357 17.1649 7.83563 17.1827C6.18549 18.4781 4.14758 19.1808 2.04973 19.1777C1.67811 19.1778 1.30681 19.1561 0.937744 19.1127C3.06719 20.4818 5.54601 21.2085 8.07763 21.2057C16.6475 21.2057 21.3324 14.1078 21.3324 7.95187C21.3324 7.75188 21.3274 7.54988 21.3184 7.34988C22.2297 6.69087 23.0163 5.8748 23.6414 4.93992L23.6434 4.93692Z" fill="#0C646D"/>
</g>
<defs>
<clipPath id="clip0_233_136">
<rect width="23.9996" height="23.9996" fill="white"/>
</clipPath>
</defs>
</svg>
